Coordinates
version=1
nRows=34
nColumns=33
inDegrees=yes

Units are S.I. units (second, meters, Newtons, ...)
Angles are in degrees.

endheader
time	ground_thorax_rot_x	ground_thorax_rot_y	ground_thorax_rot_z	ground_thorax_tx	ground_thorax_ty	ground_thorax_tz	clav_prot_r	clav_elev_r	scapula_abduction_r	scapula_elevation_r	scapula_upward_rot_r	scapula_winging_r	shoulder_elv_r	plane_of_elev_r	axial_rot_r	elbow_flexion_r	pro_sup_r	wrist_flex_r	wrist_dev_r	clav_prot_l	clav_elev_l	scapula_abduction_l	scapula_elevation_l	scapula_upward_rot_l	scapula_winging_l	shoulder_elv_l	plane_of_elev_l	axial_rot_l	elbow_flexion_l	pro_sup_l	wrist_flex_l	wrist_dev_l	
5.4800	-90.000000	90.000000	-90.000000	-184.248012	905.435012	-4.783075	24.424585	39.369423	45.000000	45.000000	16.241308	2147.231447	-257.969083	25.515643	-140.798026	1457.908343	-290.708185	17.386245	3.478228	-45.000000	2.302396	39.097789	-12.550686	-45.000000	-2414.562485	-774.575326	143.922802	8.286817	-707.818474	37.518610	6.279432	-22.423279	
5.4900	-90.000000	90.000000	-90.000000	-181.352051	905.603119	-4.559109	24.604033	39.396481	45.000000	45.000000	15.958937	2147.169575	-258.097993	25.398307	-141.568761	1458.043062	-289.532252	17.292139	3.400744	-45.000000	2.438533	39.359741	-12.660909	-45.000000	-2414.539625	-774.903813	144.125999	9.274830	-707.913249	36.455105	6.443672	-22.424913	
5.5000	-90.000000	90.000000	-90.000000	-178.345403	905.481885	-4.327507	24.785797	39.425289	45.000000	45.000000	15.680400	2147.098731	-258.230278	25.276774	-142.372070	1458.181836	-288.334263	17.189775	3.326685	-45.000000	2.639352	39.639228	-12.821291	-45.000000	-2414.532492	-775.232908	144.335858	10.243482	-708.032605	35.190820	6.648740	-22.423230	
5.5100	-90.000000	90.000000	-90.000000	-175.232070	905.061868	-4.092575	24.969259	39.456257	45.000000	45.000000	15.406734	2147.019059	-258.366328	25.153473	-143.203754	1458.323291	-287.115364	17.079427	3.256983	-45.000000	2.901136	39.938364	-13.033603	-45.000000	-2414.544049	-775.558402	144.550018	11.171572	-708.177321	33.725149	6.891467	-22.413012	
5.5200	-90.000000	90.000000	-90.000000	-172.017654	904.338171	-3.858128	25.153776	39.489248	45.000000	45.000000	15.141480	2146.924141	-258.503775	25.026866	-144.060736	1458.468564	-285.878636	16.961171	3.191719	-45.000000	3.214564	40.248485	-13.284258	-45.000000	-2414.564367	-775.878549	144.770624	12.052354	-708.345193	32.061340	7.171972	-22.392669	
5.5300	-90.000000	90.000000	-90.000000	-168.708176	903.309377	-3.627152	25.338373	39.524787	45.000000	45.000000	14.888623	2146.811826	-258.641860	24.897807	-144.937871	1458.617849	-284.629430	16.835831	3.131324	-45.000000	3.561625	40.568175	-13.569825	-45.000000	-2414.592473	-776.189095	144.996567	12.884047	-708.532284	30.208469	7.489639	-22.360133	
5.5400	-90.000000	90.000000	-90.000000	-165.310461	901.976870	-3.401547	25.521374	39.563930	45.000000	45.000000	14.651078	2146.678100	-258.780371	24.765677	-145.829490	1458.768800	-283.376596	16.704686	3.076960	-45.000000	3.926767	40.891933	-13.879998	-45.000000	-2414.621144	-776.488505	145.227490	13.672731	-708.734902	28.186762	7.841151	-22.312640	
5.5500	-90.000000	90.000000	-90.000000	-161.830801	900.344073	-3.181739	25.701126	39.608632	45.000000	45.000000	14.434005	2146.520749	-258.918513	24.632907	-146.728761	1458.918866	-282.130986	16.569442	3.029888	-45.000000	4.300173	41.221883	-14.215401	-45.000000	-2414.650915	-776.775061	145.457268	14.432274	-708.947925	26.024388	8.226196	-22.249256	
5.5600	-90.000000	90.000000	-90.000000	-158.275775	898.416329	-2.966590	25.875680	39.660263	45.000000	45.000000	14.239852	2146.336304	-259.056474	24.499212	-147.629844	1459.064884	-280.907177	16.432118	2.991398	-45.000000	4.674659	41.554500	-14.570951	-45.000000	-2414.676091	-777.050879	145.683629	15.168325	-709.169101	23.759547	8.637271	-22.166562	
5.5700	-90.000000	90.000000	-90.000000	-154.651260	896.200621	-2.753393	26.043848	39.720314	45.000000	45.000000	14.071834	2146.121354	-259.194624	24.365935	-148.528852	1459.204572	-279.720020	16.294568	2.962276	-45.000000	5.050549	41.893496	-14.946934	-45.000000	-2414.696994	-777.313495	145.901679	15.885713	-709.397156	21.434294	9.070706	-22.062898	
5.5800	-90.000000	90.000000	-90.000000	-150.963065	893.705980	-2.538307	26.203632	39.789251	45.000000	45.000000	13.930016	2145.873090	-259.332525	24.230657	-149.423031	1459.330013	-278.588799	16.160529	2.945235	-45.000000	5.421083	42.239867	-15.343751	-45.000000	-2414.705720	-777.565400	146.098022	16.574101	-709.628896	19.100382	9.509232	-21.932685	
5.5900	-90.000000	90.000000	-90.000000	-147.216078	890.943462	-2.316965	26.356220	39.869199	45.000000	45.000000	13.815869	2145.586457	-259.474039	24.101833	-150.315729	1459.447716	-277.526984	16.030557	2.937284	-45.000000	5.809359	42.590406	-15.752823	-45.000000	-2414.707753	-777.806383	146.287350	17.264163	-709.859472	16.793377	9.970743	-21.782716	
5.6000	-90.000000	90.000000	-90.000000	-143.414569	887.926574	-2.085364	26.500159	39.960442	45.000000	45.000000	13.728348	2145.260999	-259.618290	23.977288	-151.208527	1459.553988	-276.551885	15.909785	2.939815	-45.000000	6.205539	42.939109	-16.164623	-45.000000	-2414.700150	-778.037757	146.477019	17.953365	-710.084821	14.557930	10.439852	-21.610843	
5.6100	-90.000000	90.000000	-90.000000	-139.561597	884.671287	-1.840651	26.634743	40.062512	45.000000	45.000000	13.666929	2144.898527	-259.765066	23.857499	-152.105476	1459.650647	-275.683888	15.802760	2.952199	-45.000000	6.597666	43.279870	-16.566387	-45.000000	-2414.683470	-778.258084	146.682427	18.648315	-710.303419	12.439084	10.905869	-21.419571	
5.6200	-90.000000	90.000000	-90.000000	-135.659396	881.196249	-1.581723	26.757020	40.173127	45.000000	45.000000	13.628052	2144.503633	-259.908572	23.733344	-153.011097	1459.722809	-274.954333	15.719502	2.979908	-45.000000	6.950327	43.612415	-16.962387	-45.000000	-2414.645230	-778.470062	146.882398	19.324281	-710.512586	10.493205	11.330515	-21.205385	
5.6300	-90.000000	90.000000	-90.000000	-131.709877	877.523076	-1.309350	26.871328	40.293918	45.000000	45.000000	13.610376	2144.069559	-260.055075	23.613544	-153.934688	1459.773949	-274.389967	15.661232	3.020045	-45.000000	7.303461	43.934385	-17.349489	-45.000000	-2414.590732	-778.678066	147.091343	20.028354	-710.714709	8.744794	11.745173	-20.980059	
5.6400	-90.000000	90.000000	-90.000000	-127.715298	873.675976	-1.025860	26.974272	40.422279	45.000000	45.000000	13.609072	2143.603209	-260.199533	23.488294	-154.880270	1459.793959	-274.023975	15.636712	3.076687	-45.000000	7.616922	44.237338	-17.728332	-45.000000	-2414.506423	-778.886153	147.292368	20.714354	-710.909307	7.225367	12.109492	-20.741720	
5.6500	-90.000000	90.000000	-90.000000	-123.679614	869.681974	-0.734457	27.066879	40.557256	45.000000	45.000000	13.621618	2143.104835	-260.343579	23.358480	-155.852539	1459.781915	-273.885828	15.647776	3.149912	-45.000000	7.893081	44.502862	-18.089699	-45.000000	-2414.373770	-779.101346	147.484804	21.376682	-711.098163	5.946356	12.421795	-20.496128	
5.6600	-90.000000	90.000000	-90.000000	-119.609127	865.570050	-0.438327	27.147572	40.697859	45.000000	45.000000	13.642995	2142.580429	-260.481490	23.219936	-156.854433	1459.730558	-274.004995	15.701454	3.243176	-45.000000	8.107600	44.714385	-18.430297	-45.000000	-2414.171149	-779.330203	147.654091	21.990339	-711.281921	4.914068	12.668193	-20.246695	
5.6700	-90.000000	90.000000	-90.000000	-115.513534	861.370807	-0.139878	27.221596	40.845736	45.000000	45.000000	13.671132	2142.024365	-260.619003	23.084275	-157.885185	1459.645860	-274.398283	15.793472	3.354404	-45.000000	8.309762	44.864332	-18.745403	-45.000000	-2413.899723	-779.577817	147.812964	22.605684	-711.459997	4.106760	12.893482	-20.006241	
5.6800	-90.000000	90.000000	-90.000000	-111.405495	857.114790	0.159826	27.288724	40.998570	45.000000	45.000000	13.704529	2141.444079	-260.752760	22.950332	-158.933987	1459.527822	-275.087593	15.923199	3.485411	-45.000000	8.482605	44.952793	-19.031669	-45.000000	-2413.564439	-779.842879	147.964947	23.206768	-711.636299	3.521902	13.090423	-19.774997	
5.6900	-90.000000	90.000000	-90.000000	-107.300711	852.831789	0.461233	27.350530	41.154881	45.000000	45.000000	13.743857	2140.839370	-260.883360	22.821102	-159.985722	1459.370245	-276.087094	16.084140	3.639853	-45.000000	8.636879	44.991307	-19.291642	-45.000000	-2413.174005	-780.121380	148.108528	23.808484	-711.812027	3.156434	13.263278	-19.555228	
5.7000	-90.000000	90.000000	-90.000000	-103.216692	848.549307	0.766258	27.408494	41.314318	45.000000	45.000000	13.788806	2140.212082	-261.009437	22.698995	-161.023682	1459.167487	-277.408243	16.271383	3.821182	-45.000000	8.779428	45.000000	-19.531550	-45.000000	-2412.747873	-780.406839	148.245414	24.419962	-711.995600	3.009482	13.423778	-19.349567	
5.7100	-90.000000	90.000000	-90.000000	-99.172121	844.292154	1.077993	27.464053	41.477115	45.000000	45.000000	13.840017	2139.560559	-261.132969	22.588643	-162.028299	1458.915932	-279.048659	16.475203	4.032529	-45.000000	8.936366	45.000000	-19.759179	-45.000000	-2412.310692	-780.692300	148.377216	25.063528	-712.183775	3.067871	13.583559	-19.163361	
5.7200	-90.000000	90.000000	-90.000000	-95.185779	840.082194	1.400318	27.516850	41.641527	45.000000	45.000000	13.900137	2138.892429	-261.253772	22.492447	-162.978169	1458.623108	-281.011147	16.686877	4.273147	-45.000000	9.095184	45.000000	-19.968953	-45.000000	-2411.877057	-780.970945	148.513552	25.721257	-712.379377	3.327893	13.737051	-18.997043	
5.7300	-90.000000	90.000000	-90.000000	-91.276277	835.939273	1.737439	27.563026	41.806859	45.000000	45.000000	13.968666	2138.214851	-261.365776	22.407073	-163.852321	1458.283301	-283.281925	16.900234	4.547471	-45.000000	9.236994	45.000000	-20.158060	-45.000000	-2411.447766	-781.238191	148.648996	26.375698	-712.574278	3.776761	13.860111	-18.851087	
5.7400	-90.000000	90.000000	-90.000000	-87.461744	831.882298	2.093441	27.603115	41.973239	45.000000	45.000000	14.045372	2137.533814	-261.465197	22.333721	-164.629862	1457.898377	-285.846316	17.108071	4.854972	-45.000000	9.362130	45.000000	-20.325919	-45.000000	-2411.020869	-781.493910	148.779418	27.025314	-712.770830	4.396879	13.960548	-18.726871	
5.7500	-90.000000	90.000000	-90.000000	-83.760041	827.930495	2.471794	27.635669	42.139778	45.000000	45.000000	14.129754	2136.857160	-261.546855	22.272500	-165.290147	1457.471833	-288.683364	17.303631	5.194057	-45.000000	9.466671	45.000000	-20.473352	-45.000000	-2410.601213	-781.736738	148.902472	27.660611	-712.962915	5.163085	14.029655	-18.625088	
5.7600	-90.000000	90.000000	-90.000000	-80.188757	824.103610	2.874841	27.663058	42.304881	45.000000	45.000000	14.223896	2136.189266	-261.611253	22.228284	-165.815965	1457.011800	-291.775344	17.476765	5.558166	-45.000000	9.560989	45.000000	-20.598517	-45.000000	-2410.190738	-781.966451	149.021069	28.284814	-713.154604	6.048822	14.083449	-18.545462	
5.7700	-90.000000	90.000000	-90.000000	-76.765855	820.421937	3.303101	27.683370	42.467638	45.000000	45.000000	14.326340	2135.537565	-261.653010	22.198644	-166.195290	1456.518253	-295.093880	17.623837	5.944151	-45.000000	9.635666	45.000000	-20.702390	-45.000000	-2409.789328	-782.180259	149.129741	28.882198	-713.345104	7.023323	14.114628	-18.485631	
5.7800	-90.000000	90.000000	-90.000000	-73.507486	816.903130	3.754931	27.696991	42.627265	45.000000	45.000000	14.436742	2134.907297	-261.670108	22.181722	-166.423718	1455.991138	-298.607918	17.740896	6.346845	-45.000000	9.690222	45.000000	-20.784594	-45.000000	-2409.395136	-782.377232	149.226081	29.439410	-713.539486	8.055617	14.127629	-18.442927	
5.7900	-90.000000	90.000000	-90.000000	-70.429672	813.562745	4.225847	27.704076	42.783586	45.000000	45.000000	14.555639	2134.305496	-261.662291	22.177405	-166.504658	1455.437609	-302.289425	17.827283	6.759123	-45.000000	9.726212	45.000000	-20.846868	-45.000000	-2409.012399	-782.555157	149.310963	29.946286	-713.737619	9.116103	14.126230	-18.415703	
5.8000	-90.000000	90.000000	-90.000000	-67.533488	810.400325	4.709981	27.705404	42.936708	45.000000	45.000000	14.682899	2133.734707	-261.632825	22.184172	-166.453530	1454.862307	-306.108101	17.884146	7.175317	-45.000000	9.746127	45.000000	-20.891598	-45.000000	-2408.645080	-782.713623	149.387586	30.402124	-713.940030	10.182933	14.116084	-18.401558	
5.8100	-90.000000	90.000000	-90.000000	-64.825408	807.418163	5.199584	27.700119	43.088135	45.000000	45.000000	14.815130	2133.207356	-261.582298	22.198158	-166.291680	1454.280390	-310.043619	17.919799	7.591262	-45.000000	9.757496	45.000000	-20.926752	-45.000000	-2408.307487	-782.860850	149.466002	30.795089	-714.142714	11.237534	14.089940	-18.399246	
